<mxfile host="Electron" modified="2023-06-05T14:47:23.820Z" agent="Mozilla/5.0 (Macintosh; Intel Mac OS X 10_15_7) AppleWebKit/537.36 (KHTML, like Gecko) draw.io/21.2.1 Chrome/112.0.5615.87 Electron/24.1.2 Safari/537.36" etag="cM61EvC7lnQaROh34Jbl" version="21.2.1" type="device">
  <diagram name="Page-1" id="H1nZVYqxkzLZFgEqRADx">
    <mxGraphModel dx="-26030" dy="10363" grid="1" gridSize="10" guides="1" tooltips="1" connect="1" arrows="1" fold="1" page="1" pageScale="1" pageWidth="850" pageHeight="1100" math="0" shadow="0">
      <root>
        <mxCell id="0" />
        <mxCell id="1" parent="0" />
        <mxCell id="AsBp8XiL8Dx4Y6rQVwFH-141" value="R, W: 150, H: 110, ORDER: 21, GC: {48, 34, 19, 18, 31, 5, 13, 15, 4, 9, 1, 11, 10, 32, 14, 35, 21, 6, 47, 62, 41} " style="text;html=1;strokeColor=none;fillColor=none;align=center;verticalAlign=middle;whiteSpace=wrap;rounded=0;fontSize=32;" parent="1" vertex="1">
          <mxGeometry x="32590" y="-5310" width="1500" height="30" as="geometry" />
        </mxCell>
        <mxCell id="AsBp8XiL8Dx4Y6rQVwFH-208" value="R, W: 150, H: 120, ORDER: 22, GC: {48, 21, 32, 13, 8, 5, 3, 49, 6, 14, 4, 29, 10, 19, 30, 72, 22, 7, 15, 11, 41, 37} " style="text;html=1;strokeColor=none;fillColor=none;align=center;verticalAlign=middle;whiteSpace=wrap;rounded=0;fontSize=32;" parent="1" vertex="1">
          <mxGeometry x="32630" y="-4040" width="1500" height="30" as="geometry" />
        </mxCell>
        <mxCell id="AsBp8XiL8Dx4Y6rQVwFH-317" value="R, W: 150, H: 122, ORDER: 19, GC: {53, 25, 22, 50, 3, 19, 28, 12, 7, 5, 2, 21, 31, 69, 29, 11, 10, 41, 40} " style="text;html=1;strokeColor=none;fillColor=none;align=center;verticalAlign=middle;whiteSpace=wrap;rounded=0;fontSize=32;" parent="1" vertex="1">
          <mxGeometry x="32620" y="-2670" width="1500" height="30" as="geometry" />
        </mxCell>
        <mxCell id="AsBp8XiL8Dx4Y6rQVwFH-382" value="R, W: 150, H: 122, ORDER: 24, GC: {38, 47, 29, 9, 35, 30, 4, 7, 1, 3, 19, 34, 2, 12, 31, 20, 14, 22, 6, 8, 55, 53, 11, 42} " style="text;html=1;strokeColor=none;fillColor=none;align=center;verticalAlign=middle;whiteSpace=wrap;rounded=0;fontSize=32;" parent="1" vertex="1">
          <mxGeometry x="32610" y="-1310" width="1500" height="30" as="geometry" />
        </mxCell>
        <mxCell id="AsBp8XiL8Dx4Y6rQVwFH-479" value="R, W: 150, H: 130, ORDER: 21, GC: {49, 29, 21, 23, 15, 6, 28, 4, 14, 5, 10, 20, 9, 2, 13, 11, 33, 24, 81, 12, 69} " style="text;html=1;strokeColor=none;fillColor=none;align=center;verticalAlign=middle;whiteSpace=wrap;rounded=0;fontSize=32;" parent="1" vertex="1">
          <mxGeometry x="32600" width="1500" height="30" as="geometry" />
        </mxCell>
        <mxCell id="GeeGnhDk9Cqx4BshHvgN-200" value="R, W: 150, H: 135, ORDER: 19, GC: {51, 13, 11, 20, 2, 9, 15, 24, 8, 21, 23, 31, 17, 7, 38, 10, 28, 84, 66} " style="text;html=1;strokeColor=none;fillColor=none;align=center;verticalAlign=middle;whiteSpace=wrap;rounded=0;fontSize=32;" vertex="1" parent="1">
          <mxGeometry x="32600" y="1430" width="1500" height="30" as="geometry" />
        </mxCell>
        <mxCell id="GeeGnhDk9Cqx4BshHvgN-220" value="R, W: 150, H: 138, ORDER: 21, GC: {17, 19, 15, 2, 27, 13, 8, 21, 66, 5, 16, 1, 4, 33, 3, 7, 23, 28, 78, 6, 72} " style="text;html=1;strokeColor=none;fillColor=none;align=center;verticalAlign=middle;whiteSpace=wrap;rounded=0;fontSize=32;" vertex="1" parent="1">
          <mxGeometry x="32600" y="2940" width="1500" height="30" as="geometry" />
        </mxCell>
        <mxCell id="GeeGnhDk9Cqx4BshHvgN-242" value="R, W: 150, H: 138, ORDER: 25, GC: {45, 55, 35, 10, 50, 5, 15, 30, 25, 27, 11, 7, 4, 3, 1, 17, 16, 8, 22, 58, 2, 56, 6, 14, 36} " style="text;html=1;strokeColor=none;fillColor=none;align=center;verticalAlign=middle;whiteSpace=wrap;rounded=0;fontSize=32;" vertex="1" parent="1">
          <mxGeometry x="32600" y="4450" width="1500" height="30" as="geometry" />
        </mxCell>
        <mxCell id="GeeGnhDk9Cqx4BshHvgN-268" value="R, W: 150, H: 143, ORDER: 18, GC: {39, 23, 30, 16, 7, 58, 9, 28, 45, 19, 26, 38, 41, 59, 12, 47, 3, 44} " style="text;html=1;strokeColor=none;fillColor=none;align=center;verticalAlign=middle;whiteSpace=wrap;rounded=0;fontSize=32;" vertex="1" parent="1">
          <mxGeometry x="32630" y="5950" width="1500" height="30" as="geometry" />
        </mxCell>
        <mxCell id="GeeGnhDk9Cqx4BshHvgN-287" value="R, W: 150, H: 146, ORDER: 16, GC: {64, 40, 46, 24, 16, 14, 12, 4, 32, 18, 82, 6, 2, 10, 8, 68} " style="text;html=1;strokeColor=none;fillColor=none;align=center;verticalAlign=middle;whiteSpace=wrap;rounded=0;fontSize=32;" vertex="1" parent="1">
          <mxGeometry x="32630" y="7490" width="1500" height="30" as="geometry" />
        </mxCell>
        <mxCell id="GeeGnhDk9Cqx4BshHvgN-304" value="R, W: 150, H: 107, ORDER: 23, GC: {51, 27, 30, 24, 3, 22, 20, 2, 18, 8, 16, 41, 34, 56, 19, 14, 5, 4, 36, 1, 9, 23, 35} " style="text;html=1;strokeColor=none;fillColor=none;align=center;verticalAlign=middle;whiteSpace=wrap;rounded=0;fontSize=32;" vertex="1" parent="1">
          <mxGeometry x="32550" y="-6570" width="1500" height="30" as="geometry" />
        </mxCell>
        <mxCell id="GeeGnhDk9Cqx4BshHvgN-328" value="" style="group;flipV=1;" vertex="1" connectable="0" parent="1">
          <mxGeometry x="32550" y="-6520" width="1500" height="1070" as="geometry" />
        </mxCell>
        <mxCell id="GeeGnhDk9Cqx4BshHvgN-305" value="51" style="rounded=0;whiteSpace=wrap;html=1;fontSize=32;" vertex="1" parent="GeeGnhDk9Cqx4BshHvgN-328">
          <mxGeometry y="560" width="510" height="510" as="geometry" />
        </mxCell>
        <mxCell id="GeeGnhDk9Cqx4BshHvgN-306" value="27" style="rounded=0;whiteSpace=wrap;html=1;fontSize=32;" vertex="1" parent="GeeGnhDk9Cqx4BshHvgN-328">
          <mxGeometry x="510" y="800" width="270" height="270" as="geometry" />
        </mxCell>
        <mxCell id="GeeGnhDk9Cqx4BshHvgN-307" value="30" style="rounded=0;whiteSpace=wrap;html=1;fontSize=32;" vertex="1" parent="GeeGnhDk9Cqx4BshHvgN-328">
          <mxGeometry x="780" y="770" width="300" height="300" as="geometry" />
        </mxCell>
        <mxCell id="GeeGnhDk9Cqx4BshHvgN-308" value="24" style="rounded=0;whiteSpace=wrap;html=1;fontSize=32;" vertex="1" parent="GeeGnhDk9Cqx4BshHvgN-328">
          <mxGeometry x="510" y="560" width="240" height="240" as="geometry" />
        </mxCell>
        <mxCell id="GeeGnhDk9Cqx4BshHvgN-309" value="3" style="rounded=0;whiteSpace=wrap;html=1;fontSize=32;" vertex="1" parent="GeeGnhDk9Cqx4BshHvgN-328">
          <mxGeometry x="750" y="770" width="30" height="30" as="geometry" />
        </mxCell>
        <mxCell id="GeeGnhDk9Cqx4BshHvgN-310" value="22" style="rounded=0;whiteSpace=wrap;html=1;fontSize=32;" vertex="1" parent="GeeGnhDk9Cqx4BshHvgN-328">
          <mxGeometry x="1080" y="850" width="220" height="220" as="geometry" />
        </mxCell>
        <mxCell id="GeeGnhDk9Cqx4BshHvgN-311" value="20" style="rounded=0;whiteSpace=wrap;html=1;fontSize=32;" vertex="1" parent="GeeGnhDk9Cqx4BshHvgN-328">
          <mxGeometry x="1300" y="870" width="200" height="200" as="geometry" />
        </mxCell>
        <mxCell id="GeeGnhDk9Cqx4BshHvgN-312" value="2" style="rounded=0;whiteSpace=wrap;html=1;fontSize=32;" vertex="1" parent="GeeGnhDk9Cqx4BshHvgN-328">
          <mxGeometry x="1300" y="850" width="20" height="20" as="geometry" />
        </mxCell>
        <mxCell id="GeeGnhDk9Cqx4BshHvgN-313" value="18" style="rounded=0;whiteSpace=wrap;html=1;fontSize=32;" vertex="1" parent="GeeGnhDk9Cqx4BshHvgN-328">
          <mxGeometry x="1320" y="690" width="180" height="180" as="geometry" />
        </mxCell>
        <mxCell id="GeeGnhDk9Cqx4BshHvgN-314" value="8" style="rounded=0;whiteSpace=wrap;html=1;fontSize=32;" vertex="1" parent="GeeGnhDk9Cqx4BshHvgN-328">
          <mxGeometry x="1080" y="770" width="80" height="80" as="geometry" />
        </mxCell>
        <mxCell id="GeeGnhDk9Cqx4BshHvgN-315" value="16" style="rounded=0;whiteSpace=wrap;html=1;fontSize=32;" vertex="1" parent="GeeGnhDk9Cqx4BshHvgN-328">
          <mxGeometry x="1160" y="690" width="160" height="160" as="geometry" />
        </mxCell>
        <mxCell id="GeeGnhDk9Cqx4BshHvgN-316" value="41" style="rounded=0;whiteSpace=wrap;html=1;fontSize=32;" vertex="1" parent="GeeGnhDk9Cqx4BshHvgN-328">
          <mxGeometry x="750" y="360" width="410" height="410" as="geometry" />
        </mxCell>
        <mxCell id="GeeGnhDk9Cqx4BshHvgN-317" value="34" style="rounded=0;whiteSpace=wrap;html=1;fontSize=32;" vertex="1" parent="GeeGnhDk9Cqx4BshHvgN-328">
          <mxGeometry x="1160" y="350" width="340" height="340" as="geometry" />
        </mxCell>
        <mxCell id="GeeGnhDk9Cqx4BshHvgN-318" value="56" style="rounded=0;whiteSpace=wrap;html=1;fontSize=32;" vertex="1" parent="GeeGnhDk9Cqx4BshHvgN-328">
          <mxGeometry width="560" height="560" as="geometry" />
        </mxCell>
        <mxCell id="GeeGnhDk9Cqx4BshHvgN-319" value="19" style="rounded=0;whiteSpace=wrap;html=1;fontSize=32;" vertex="1" parent="GeeGnhDk9Cqx4BshHvgN-328">
          <mxGeometry x="560" y="370" width="190" height="190" as="geometry" />
        </mxCell>
        <mxCell id="GeeGnhDk9Cqx4BshHvgN-320" value="14" style="rounded=0;whiteSpace=wrap;html=1;fontSize=32;" vertex="1" parent="GeeGnhDk9Cqx4BshHvgN-328">
          <mxGeometry x="560" y="230" width="140" height="140" as="geometry" />
        </mxCell>
        <mxCell id="GeeGnhDk9Cqx4BshHvgN-321" value="5" style="rounded=0;whiteSpace=wrap;html=1;fontSize=32;" vertex="1" parent="GeeGnhDk9Cqx4BshHvgN-328">
          <mxGeometry x="700" y="320" width="50" height="50" as="geometry" />
        </mxCell>
        <mxCell id="GeeGnhDk9Cqx4BshHvgN-322" value="4" style="rounded=0;whiteSpace=wrap;html=1;fontSize=32;" vertex="1" parent="GeeGnhDk9Cqx4BshHvgN-328">
          <mxGeometry x="750" y="320" width="40" height="40" as="geometry" />
        </mxCell>
        <mxCell id="GeeGnhDk9Cqx4BshHvgN-323" value="36" style="rounded=0;whiteSpace=wrap;html=1;fontSize=32;" vertex="1" parent="GeeGnhDk9Cqx4BshHvgN-328">
          <mxGeometry x="790" width="360" height="360" as="geometry" />
        </mxCell>
        <mxCell id="GeeGnhDk9Cqx4BshHvgN-324" value="1" style="rounded=0;whiteSpace=wrap;html=1;fontSize=32;" vertex="1" parent="GeeGnhDk9Cqx4BshHvgN-328">
          <mxGeometry x="1150" y="350" width="10" height="10" as="geometry" />
        </mxCell>
        <mxCell id="GeeGnhDk9Cqx4BshHvgN-325" value="9" style="rounded=0;whiteSpace=wrap;html=1;fontSize=32;" vertex="1" parent="GeeGnhDk9Cqx4BshHvgN-328">
          <mxGeometry x="700" y="230" width="90" height="90" as="geometry" />
        </mxCell>
        <mxCell id="GeeGnhDk9Cqx4BshHvgN-326" value="23" style="rounded=0;whiteSpace=wrap;html=1;fontSize=32;" vertex="1" parent="GeeGnhDk9Cqx4BshHvgN-328">
          <mxGeometry x="560" width="230" height="230" as="geometry" />
        </mxCell>
        <mxCell id="GeeGnhDk9Cqx4BshHvgN-327" value="35" style="rounded=0;whiteSpace=wrap;html=1;fontSize=32;" vertex="1" parent="GeeGnhDk9Cqx4BshHvgN-328">
          <mxGeometry x="1150" width="350" height="350" as="geometry" />
        </mxCell>
        <mxCell id="GeeGnhDk9Cqx4BshHvgN-329" value="" style="group;flipV=1;" vertex="1" connectable="0" parent="1">
          <mxGeometry x="32590" y="-5260" width="1500" height="1100" as="geometry" />
        </mxCell>
        <mxCell id="761dnnyQ54j-Cl0NHfQN-142" value="48" style="rounded=0;whiteSpace=wrap;html=1;fontSize=32;flipV=1;" parent="GeeGnhDk9Cqx4BshHvgN-329" vertex="1">
          <mxGeometry y="620" width="480" height="480" as="geometry" />
        </mxCell>
        <mxCell id="761dnnyQ54j-Cl0NHfQN-143" value="34" style="rounded=0;whiteSpace=wrap;html=1;fontSize=32;flipV=1;" parent="GeeGnhDk9Cqx4BshHvgN-329" vertex="1">
          <mxGeometry x="480" y="760" width="340" height="340" as="geometry" />
        </mxCell>
        <mxCell id="761dnnyQ54j-Cl0NHfQN-144" value="19" style="rounded=0;whiteSpace=wrap;html=1;fontSize=32;flipV=1;" parent="GeeGnhDk9Cqx4BshHvgN-329" vertex="1">
          <mxGeometry x="820" y="910" width="190" height="190" as="geometry" />
        </mxCell>
        <mxCell id="761dnnyQ54j-Cl0NHfQN-145" value="18" style="rounded=0;whiteSpace=wrap;html=1;fontSize=32;flipV=1;" parent="GeeGnhDk9Cqx4BshHvgN-329" vertex="1">
          <mxGeometry x="1010" y="920" width="180" height="180" as="geometry" />
        </mxCell>
        <mxCell id="761dnnyQ54j-Cl0NHfQN-146" value="31" style="rounded=0;whiteSpace=wrap;html=1;fontSize=32;flipV=1;" parent="GeeGnhDk9Cqx4BshHvgN-329" vertex="1">
          <mxGeometry x="1190" y="790" width="310" height="310" as="geometry" />
        </mxCell>
        <mxCell id="761dnnyQ54j-Cl0NHfQN-147" value="5" style="rounded=0;whiteSpace=wrap;html=1;fontSize=32;flipV=1;" parent="GeeGnhDk9Cqx4BshHvgN-329" vertex="1">
          <mxGeometry x="1010" y="870" width="50" height="50" as="geometry" />
        </mxCell>
        <mxCell id="761dnnyQ54j-Cl0NHfQN-148" value="13" style="rounded=0;whiteSpace=wrap;html=1;fontSize=32;flipV=1;" parent="GeeGnhDk9Cqx4BshHvgN-329" vertex="1">
          <mxGeometry x="1060" y="790" width="130" height="130" as="geometry" />
        </mxCell>
        <mxCell id="761dnnyQ54j-Cl0NHfQN-149" value="15" style="rounded=0;whiteSpace=wrap;html=1;fontSize=32;flipV=1;" parent="GeeGnhDk9Cqx4BshHvgN-329" vertex="1">
          <mxGeometry x="820" y="760" width="150" height="150" as="geometry" />
        </mxCell>
        <mxCell id="761dnnyQ54j-Cl0NHfQN-150" value="4" style="rounded=0;whiteSpace=wrap;html=1;fontSize=32;flipV=1;" parent="GeeGnhDk9Cqx4BshHvgN-329" vertex="1">
          <mxGeometry x="970" y="870" width="40" height="40" as="geometry" />
        </mxCell>
        <mxCell id="761dnnyQ54j-Cl0NHfQN-151" value="9" style="rounded=0;whiteSpace=wrap;html=1;fontSize=32;flipV=1;" parent="GeeGnhDk9Cqx4BshHvgN-329" vertex="1">
          <mxGeometry x="970" y="780" width="90" height="90" as="geometry" />
        </mxCell>
        <mxCell id="761dnnyQ54j-Cl0NHfQN-152" value="1" style="rounded=0;whiteSpace=wrap;html=1;fontSize=32;flipV=1;" parent="GeeGnhDk9Cqx4BshHvgN-329" vertex="1">
          <mxGeometry x="1060" y="780" width="10" height="10" as="geometry" />
        </mxCell>
        <mxCell id="761dnnyQ54j-Cl0NHfQN-153" value="11" style="rounded=0;whiteSpace=wrap;html=1;fontSize=32;flipV=1;" parent="GeeGnhDk9Cqx4BshHvgN-329" vertex="1">
          <mxGeometry x="1070" y="680" width="110" height="110" as="geometry" />
        </mxCell>
        <mxCell id="761dnnyQ54j-Cl0NHfQN-154" value="10" style="rounded=0;whiteSpace=wrap;html=1;fontSize=32;flipV=1;" parent="GeeGnhDk9Cqx4BshHvgN-329" vertex="1">
          <mxGeometry x="970" y="680" width="100" height="100" as="geometry" />
        </mxCell>
        <mxCell id="761dnnyQ54j-Cl0NHfQN-155" value="32" style="rounded=0;whiteSpace=wrap;html=1;fontSize=32;flipV=1;" parent="GeeGnhDk9Cqx4BshHvgN-329" vertex="1">
          <mxGeometry x="1180" y="470" width="320" height="320" as="geometry" />
        </mxCell>
        <mxCell id="761dnnyQ54j-Cl0NHfQN-156" value="14" style="rounded=0;whiteSpace=wrap;html=1;fontSize=32;flipV=1;" parent="GeeGnhDk9Cqx4BshHvgN-329" vertex="1">
          <mxGeometry x="480" y="620" width="140" height="140" as="geometry" />
        </mxCell>
        <mxCell id="761dnnyQ54j-Cl0NHfQN-157" value="35" style="rounded=0;whiteSpace=wrap;html=1;fontSize=32;flipV=1;" parent="GeeGnhDk9Cqx4BshHvgN-329" vertex="1">
          <mxGeometry x="620" y="410" width="350" height="350" as="geometry" />
        </mxCell>
        <mxCell id="761dnnyQ54j-Cl0NHfQN-158" value="21" style="rounded=0;whiteSpace=wrap;html=1;fontSize=32;flipV=1;" parent="GeeGnhDk9Cqx4BshHvgN-329" vertex="1">
          <mxGeometry x="970" y="470" width="210" height="210" as="geometry" />
        </mxCell>
        <mxCell id="761dnnyQ54j-Cl0NHfQN-159" value="6" style="rounded=0;whiteSpace=wrap;html=1;fontSize=32;flipV=1;" parent="GeeGnhDk9Cqx4BshHvgN-329" vertex="1">
          <mxGeometry x="970" y="410" width="60" height="60" as="geometry" />
        </mxCell>
        <mxCell id="761dnnyQ54j-Cl0NHfQN-160" value="47" style="rounded=0;whiteSpace=wrap;html=1;fontSize=32;flipV=1;" parent="GeeGnhDk9Cqx4BshHvgN-329" vertex="1">
          <mxGeometry x="1030" width="470" height="470" as="geometry" />
        </mxCell>
        <mxCell id="761dnnyQ54j-Cl0NHfQN-161" value="62" style="rounded=0;whiteSpace=wrap;html=1;fontSize=32;flipV=1;" parent="GeeGnhDk9Cqx4BshHvgN-329" vertex="1">
          <mxGeometry width="620" height="620" as="geometry" />
        </mxCell>
        <mxCell id="761dnnyQ54j-Cl0NHfQN-162" value="41" style="rounded=0;whiteSpace=wrap;html=1;fontSize=32;flipV=1;" parent="GeeGnhDk9Cqx4BshHvgN-329" vertex="1">
          <mxGeometry x="620" width="410" height="410" as="geometry" />
        </mxCell>
        <mxCell id="GeeGnhDk9Cqx4BshHvgN-330" value="" style="group;flipV=1;" vertex="1" connectable="0" parent="1">
          <mxGeometry x="32630" y="-3990" width="1500" height="1200" as="geometry" />
        </mxCell>
        <mxCell id="761dnnyQ54j-Cl0NHfQN-209" value="48" style="rounded=0;whiteSpace=wrap;html=1;fontSize=32;" parent="GeeGnhDk9Cqx4BshHvgN-330" vertex="1">
          <mxGeometry y="720" width="480" height="480" as="geometry" />
        </mxCell>
        <mxCell id="761dnnyQ54j-Cl0NHfQN-210" value="21" style="rounded=0;whiteSpace=wrap;html=1;fontSize=32;" parent="GeeGnhDk9Cqx4BshHvgN-330" vertex="1">
          <mxGeometry x="480" y="990" width="210" height="210" as="geometry" />
        </mxCell>
        <mxCell id="761dnnyQ54j-Cl0NHfQN-211" value="32" style="rounded=0;whiteSpace=wrap;html=1;fontSize=32;" parent="GeeGnhDk9Cqx4BshHvgN-330" vertex="1">
          <mxGeometry x="690" y="880" width="320" height="320" as="geometry" />
        </mxCell>
        <mxCell id="761dnnyQ54j-Cl0NHfQN-212" value="13" style="rounded=0;whiteSpace=wrap;html=1;fontSize=32;" parent="GeeGnhDk9Cqx4BshHvgN-330" vertex="1">
          <mxGeometry x="480" y="860" width="130" height="130" as="geometry" />
        </mxCell>
        <mxCell id="761dnnyQ54j-Cl0NHfQN-213" value="8" style="rounded=0;whiteSpace=wrap;html=1;fontSize=32;" parent="GeeGnhDk9Cqx4BshHvgN-330" vertex="1">
          <mxGeometry x="610" y="910" width="80" height="80" as="geometry" />
        </mxCell>
        <mxCell id="761dnnyQ54j-Cl0NHfQN-214" value="5" style="rounded=0;whiteSpace=wrap;html=1;fontSize=32;" parent="GeeGnhDk9Cqx4BshHvgN-330" vertex="1">
          <mxGeometry x="610" y="860" width="50" height="50" as="geometry" />
        </mxCell>
        <mxCell id="761dnnyQ54j-Cl0NHfQN-215" value="3" style="rounded=0;whiteSpace=wrap;html=1;fontSize=32;" parent="GeeGnhDk9Cqx4BshHvgN-330" vertex="1">
          <mxGeometry x="660" y="880" width="30" height="30" as="geometry" />
        </mxCell>
        <mxCell id="761dnnyQ54j-Cl0NHfQN-216" value="49" style="rounded=0;whiteSpace=wrap;html=1;fontSize=32;" parent="GeeGnhDk9Cqx4BshHvgN-330" vertex="1">
          <mxGeometry x="1010" y="710" width="490" height="490" as="geometry" />
        </mxCell>
        <mxCell id="761dnnyQ54j-Cl0NHfQN-217" value="6" style="rounded=0;whiteSpace=wrap;html=1;fontSize=32;" parent="GeeGnhDk9Cqx4BshHvgN-330" vertex="1">
          <mxGeometry x="660" y="820" width="60" height="60" as="geometry" />
        </mxCell>
        <mxCell id="761dnnyQ54j-Cl0NHfQN-218" value="14" style="rounded=0;whiteSpace=wrap;html=1;fontSize=32;" parent="GeeGnhDk9Cqx4BshHvgN-330" vertex="1">
          <mxGeometry x="480" y="720" width="140" height="140" as="geometry" />
        </mxCell>
        <mxCell id="761dnnyQ54j-Cl0NHfQN-219" value="4" style="rounded=0;whiteSpace=wrap;html=1;fontSize=32;" parent="GeeGnhDk9Cqx4BshHvgN-330" vertex="1">
          <mxGeometry x="620" y="820" width="40" height="40" as="geometry" />
        </mxCell>
        <mxCell id="761dnnyQ54j-Cl0NHfQN-220" value="29" style="rounded=0;whiteSpace=wrap;html=1;fontSize=32;" parent="GeeGnhDk9Cqx4BshHvgN-330" vertex="1">
          <mxGeometry x="720" y="590" width="290" height="290" as="geometry" />
        </mxCell>
        <mxCell id="761dnnyQ54j-Cl0NHfQN-221" value="10" style="rounded=0;whiteSpace=wrap;html=1;fontSize=32;" parent="GeeGnhDk9Cqx4BshHvgN-330" vertex="1">
          <mxGeometry x="620" y="720" width="100" height="100" as="geometry" />
        </mxCell>
        <mxCell id="761dnnyQ54j-Cl0NHfQN-222" value="19" style="rounded=0;whiteSpace=wrap;html=1;fontSize=32;" parent="GeeGnhDk9Cqx4BshHvgN-330" vertex="1">
          <mxGeometry x="1010" y="520" width="190" height="190" as="geometry" />
        </mxCell>
        <mxCell id="761dnnyQ54j-Cl0NHfQN-223" value="30" style="rounded=0;whiteSpace=wrap;html=1;fontSize=32;" parent="GeeGnhDk9Cqx4BshHvgN-330" vertex="1">
          <mxGeometry x="1200" y="410" width="300" height="300" as="geometry" />
        </mxCell>
        <mxCell id="761dnnyQ54j-Cl0NHfQN-224" value="72" style="rounded=0;whiteSpace=wrap;html=1;fontSize=32;" parent="GeeGnhDk9Cqx4BshHvgN-330" vertex="1">
          <mxGeometry width="720" height="720" as="geometry" />
        </mxCell>
        <mxCell id="761dnnyQ54j-Cl0NHfQN-225" value="22" style="rounded=0;whiteSpace=wrap;html=1;fontSize=32;" parent="GeeGnhDk9Cqx4BshHvgN-330" vertex="1">
          <mxGeometry x="720" y="370" width="220" height="220" as="geometry" />
        </mxCell>
        <mxCell id="761dnnyQ54j-Cl0NHfQN-226" value="7" style="rounded=0;whiteSpace=wrap;html=1;fontSize=32;" parent="GeeGnhDk9Cqx4BshHvgN-330" vertex="1">
          <mxGeometry x="940" y="520" width="70" height="70" as="geometry" />
        </mxCell>
        <mxCell id="761dnnyQ54j-Cl0NHfQN-227" value="15" style="rounded=0;whiteSpace=wrap;html=1;fontSize=32;" parent="GeeGnhDk9Cqx4BshHvgN-330" vertex="1">
          <mxGeometry x="940" y="370" width="150" height="150" as="geometry" />
        </mxCell>
        <mxCell id="761dnnyQ54j-Cl0NHfQN-228" value="11" style="rounded=0;whiteSpace=wrap;html=1;fontSize=32;" parent="GeeGnhDk9Cqx4BshHvgN-330" vertex="1">
          <mxGeometry x="1090" y="410" width="110" height="110" as="geometry" />
        </mxCell>
        <mxCell id="761dnnyQ54j-Cl0NHfQN-229" value="41" style="rounded=0;whiteSpace=wrap;html=1;fontSize=32;" parent="GeeGnhDk9Cqx4BshHvgN-330" vertex="1">
          <mxGeometry x="1090" width="410" height="410" as="geometry" />
        </mxCell>
        <mxCell id="761dnnyQ54j-Cl0NHfQN-230" value="37" style="rounded=0;whiteSpace=wrap;html=1;fontSize=32;" parent="GeeGnhDk9Cqx4BshHvgN-330" vertex="1">
          <mxGeometry x="720" width="370" height="370" as="geometry" />
        </mxCell>
        <mxCell id="GeeGnhDk9Cqx4BshHvgN-331" value="" style="group;flipV=1;" vertex="1" connectable="0" parent="1">
          <mxGeometry x="32620" y="-2620" width="1500" height="1220" as="geometry" />
        </mxCell>
        <mxCell id="761dnnyQ54j-Cl0NHfQN-318" value="53" style="rounded=0;whiteSpace=wrap;html=1;fontSize=32;" parent="GeeGnhDk9Cqx4BshHvgN-331" vertex="1">
          <mxGeometry y="690" width="530" height="530" as="geometry" />
        </mxCell>
        <mxCell id="761dnnyQ54j-Cl0NHfQN-319" value="25" style="rounded=0;whiteSpace=wrap;html=1;fontSize=32;" parent="GeeGnhDk9Cqx4BshHvgN-331" vertex="1">
          <mxGeometry x="530" y="970" width="250" height="250" as="geometry" />
        </mxCell>
        <mxCell id="761dnnyQ54j-Cl0NHfQN-320" value="22" style="rounded=0;whiteSpace=wrap;html=1;fontSize=32;" parent="GeeGnhDk9Cqx4BshHvgN-331" vertex="1">
          <mxGeometry x="780" y="1000" width="220" height="220" as="geometry" />
        </mxCell>
        <mxCell id="761dnnyQ54j-Cl0NHfQN-321" value="50" style="rounded=0;whiteSpace=wrap;html=1;fontSize=32;" parent="GeeGnhDk9Cqx4BshHvgN-331" vertex="1">
          <mxGeometry x="1000" y="720" width="500" height="500" as="geometry" />
        </mxCell>
        <mxCell id="761dnnyQ54j-Cl0NHfQN-322" value="3" style="rounded=0;whiteSpace=wrap;html=1;fontSize=32;" parent="GeeGnhDk9Cqx4BshHvgN-331" vertex="1">
          <mxGeometry x="780" y="970" width="30" height="30" as="geometry" />
        </mxCell>
        <mxCell id="761dnnyQ54j-Cl0NHfQN-323" value="19" style="rounded=0;whiteSpace=wrap;html=1;fontSize=32;" parent="GeeGnhDk9Cqx4BshHvgN-331" vertex="1">
          <mxGeometry x="810" y="810" width="190" height="190" as="geometry" />
        </mxCell>
        <mxCell id="761dnnyQ54j-Cl0NHfQN-324" value="28" style="rounded=0;whiteSpace=wrap;html=1;fontSize=32;" parent="GeeGnhDk9Cqx4BshHvgN-331" vertex="1">
          <mxGeometry x="530" y="690" width="280" height="280" as="geometry" />
        </mxCell>
        <mxCell id="761dnnyQ54j-Cl0NHfQN-325" value="12" style="rounded=0;whiteSpace=wrap;html=1;fontSize=32;" parent="GeeGnhDk9Cqx4BshHvgN-331" vertex="1">
          <mxGeometry x="810" y="690" width="120" height="120" as="geometry" />
        </mxCell>
        <mxCell id="761dnnyQ54j-Cl0NHfQN-326" value="7" style="rounded=0;whiteSpace=wrap;html=1;fontSize=32;" parent="GeeGnhDk9Cqx4BshHvgN-331" vertex="1">
          <mxGeometry x="930" y="740" width="70" height="70" as="geometry" />
        </mxCell>
        <mxCell id="761dnnyQ54j-Cl0NHfQN-327" value="5" style="rounded=0;whiteSpace=wrap;html=1;fontSize=32;" parent="GeeGnhDk9Cqx4BshHvgN-331" vertex="1">
          <mxGeometry x="930" y="690" width="50" height="50" as="geometry" />
        </mxCell>
        <mxCell id="761dnnyQ54j-Cl0NHfQN-328" value="2" style="rounded=0;whiteSpace=wrap;html=1;fontSize=32;" parent="GeeGnhDk9Cqx4BshHvgN-331" vertex="1">
          <mxGeometry x="980" y="720" width="20" height="20" as="geometry" />
        </mxCell>
        <mxCell id="761dnnyQ54j-Cl0NHfQN-329" value="21" style="rounded=0;whiteSpace=wrap;html=1;fontSize=32;" parent="GeeGnhDk9Cqx4BshHvgN-331" vertex="1">
          <mxGeometry x="980" y="510" width="210" height="210" as="geometry" />
        </mxCell>
        <mxCell id="761dnnyQ54j-Cl0NHfQN-330" value="31" style="rounded=0;whiteSpace=wrap;html=1;fontSize=32;" parent="GeeGnhDk9Cqx4BshHvgN-331" vertex="1">
          <mxGeometry x="1190" y="410" width="310" height="310" as="geometry" />
        </mxCell>
        <mxCell id="761dnnyQ54j-Cl0NHfQN-331" value="69" style="rounded=0;whiteSpace=wrap;html=1;fontSize=32;" parent="GeeGnhDk9Cqx4BshHvgN-331" vertex="1">
          <mxGeometry width="690" height="690" as="geometry" />
        </mxCell>
        <mxCell id="761dnnyQ54j-Cl0NHfQN-332" value="29" style="rounded=0;whiteSpace=wrap;html=1;fontSize=32;" parent="GeeGnhDk9Cqx4BshHvgN-331" vertex="1">
          <mxGeometry x="690" y="400" width="290" height="290" as="geometry" />
        </mxCell>
        <mxCell id="761dnnyQ54j-Cl0NHfQN-333" value="11" style="rounded=0;whiteSpace=wrap;html=1;fontSize=32;" parent="GeeGnhDk9Cqx4BshHvgN-331" vertex="1">
          <mxGeometry x="980" y="400" width="110" height="110" as="geometry" />
        </mxCell>
        <mxCell id="761dnnyQ54j-Cl0NHfQN-334" value="10" style="rounded=0;whiteSpace=wrap;html=1;fontSize=32;" parent="GeeGnhDk9Cqx4BshHvgN-331" vertex="1">
          <mxGeometry x="1090" y="410" width="100" height="100" as="geometry" />
        </mxCell>
        <mxCell id="761dnnyQ54j-Cl0NHfQN-335" value="41" style="rounded=0;whiteSpace=wrap;html=1;fontSize=32;" parent="GeeGnhDk9Cqx4BshHvgN-331" vertex="1">
          <mxGeometry x="1090" width="410" height="410" as="geometry" />
        </mxCell>
        <mxCell id="761dnnyQ54j-Cl0NHfQN-336" value="40" style="rounded=0;whiteSpace=wrap;html=1;fontSize=32;" parent="GeeGnhDk9Cqx4BshHvgN-331" vertex="1">
          <mxGeometry x="690" width="400" height="400" as="geometry" />
        </mxCell>
        <mxCell id="GeeGnhDk9Cqx4BshHvgN-332" value="" style="group;flipV=1;" vertex="1" connectable="0" parent="1">
          <mxGeometry x="32610" y="-1260" width="1500" height="1220" as="geometry" />
        </mxCell>
        <mxCell id="761dnnyQ54j-Cl0NHfQN-383" value="38" style="rounded=0;whiteSpace=wrap;html=1;fontSize=32;" parent="GeeGnhDk9Cqx4BshHvgN-332" vertex="1">
          <mxGeometry y="840" width="380" height="380" as="geometry" />
        </mxCell>
        <mxCell id="761dnnyQ54j-Cl0NHfQN-384" value="47" style="rounded=0;whiteSpace=wrap;html=1;fontSize=32;" parent="GeeGnhDk9Cqx4BshHvgN-332" vertex="1">
          <mxGeometry x="380" y="750" width="470" height="470" as="geometry" />
        </mxCell>
        <mxCell id="761dnnyQ54j-Cl0NHfQN-385" value="29" style="rounded=0;whiteSpace=wrap;html=1;fontSize=32;" parent="GeeGnhDk9Cqx4BshHvgN-332" vertex="1">
          <mxGeometry y="550" width="290" height="290" as="geometry" />
        </mxCell>
        <mxCell id="761dnnyQ54j-Cl0NHfQN-386" value="9" style="rounded=0;whiteSpace=wrap;html=1;fontSize=32;" parent="GeeGnhDk9Cqx4BshHvgN-332" vertex="1">
          <mxGeometry x="290" y="750" width="90" height="90" as="geometry" />
        </mxCell>
        <mxCell id="761dnnyQ54j-Cl0NHfQN-387" value="35" style="rounded=0;whiteSpace=wrap;html=1;fontSize=32;" parent="GeeGnhDk9Cqx4BshHvgN-332" vertex="1">
          <mxGeometry x="850" y="870" width="350" height="350" as="geometry" />
        </mxCell>
        <mxCell id="761dnnyQ54j-Cl0NHfQN-388" value="30" style="rounded=0;whiteSpace=wrap;html=1;fontSize=32;" parent="GeeGnhDk9Cqx4BshHvgN-332" vertex="1">
          <mxGeometry x="1200" y="920" width="300" height="300" as="geometry" />
        </mxCell>
        <mxCell id="761dnnyQ54j-Cl0NHfQN-389" value="4" style="rounded=0;whiteSpace=wrap;html=1;fontSize=32;" parent="GeeGnhDk9Cqx4BshHvgN-332" vertex="1">
          <mxGeometry x="1200" y="880" width="40" height="40" as="geometry" />
        </mxCell>
        <mxCell id="761dnnyQ54j-Cl0NHfQN-390" value="7" style="rounded=0;whiteSpace=wrap;html=1;fontSize=32;" parent="GeeGnhDk9Cqx4BshHvgN-332" vertex="1">
          <mxGeometry x="1240" y="850" width="70" height="70" as="geometry" />
        </mxCell>
        <mxCell id="761dnnyQ54j-Cl0NHfQN-391" value="1" style="rounded=0;whiteSpace=wrap;html=1;fontSize=32;" parent="GeeGnhDk9Cqx4BshHvgN-332" vertex="1">
          <mxGeometry x="1200" y="870" width="10" height="10" as="geometry" />
        </mxCell>
        <mxCell id="761dnnyQ54j-Cl0NHfQN-392" value="3" style="rounded=0;whiteSpace=wrap;html=1;fontSize=32;" parent="GeeGnhDk9Cqx4BshHvgN-332" vertex="1">
          <mxGeometry x="1210" y="850" width="30" height="30" as="geometry" />
        </mxCell>
        <mxCell id="761dnnyQ54j-Cl0NHfQN-393" value="19" style="rounded=0;whiteSpace=wrap;html=1;fontSize=32;" parent="GeeGnhDk9Cqx4BshHvgN-332" vertex="1">
          <mxGeometry x="1310" y="730" width="190" height="190" as="geometry" />
        </mxCell>
        <mxCell id="761dnnyQ54j-Cl0NHfQN-394" value="34" style="rounded=0;whiteSpace=wrap;html=1;fontSize=32;" parent="GeeGnhDk9Cqx4BshHvgN-332" vertex="1">
          <mxGeometry x="850" y="530" width="340" height="340" as="geometry" />
        </mxCell>
        <mxCell id="761dnnyQ54j-Cl0NHfQN-395" value="2" style="rounded=0;whiteSpace=wrap;html=1;fontSize=32;" parent="GeeGnhDk9Cqx4BshHvgN-332" vertex="1">
          <mxGeometry x="1190" y="850" width="20" height="20" as="geometry" />
        </mxCell>
        <mxCell id="761dnnyQ54j-Cl0NHfQN-396" value="12" style="rounded=0;whiteSpace=wrap;html=1;fontSize=32;" parent="GeeGnhDk9Cqx4BshHvgN-332" vertex="1">
          <mxGeometry x="1190" y="730" width="120" height="120" as="geometry" />
        </mxCell>
        <mxCell id="761dnnyQ54j-Cl0NHfQN-397" value="31" style="rounded=0;whiteSpace=wrap;html=1;fontSize=32;" parent="GeeGnhDk9Cqx4BshHvgN-332" vertex="1">
          <mxGeometry x="1190" y="420" width="310" height="310" as="geometry" />
        </mxCell>
        <mxCell id="761dnnyQ54j-Cl0NHfQN-398" value="20" style="rounded=0;whiteSpace=wrap;html=1;fontSize=32;" parent="GeeGnhDk9Cqx4BshHvgN-332" vertex="1">
          <mxGeometry x="290" y="550" width="200" height="200" as="geometry" />
        </mxCell>
        <mxCell id="761dnnyQ54j-Cl0NHfQN-399" value="14" style="rounded=0;whiteSpace=wrap;html=1;fontSize=32;" parent="GeeGnhDk9Cqx4BshHvgN-332" vertex="1">
          <mxGeometry x="490" y="610" width="140" height="140" as="geometry" />
        </mxCell>
        <mxCell id="761dnnyQ54j-Cl0NHfQN-400" value="22" style="rounded=0;whiteSpace=wrap;html=1;fontSize=32;" parent="GeeGnhDk9Cqx4BshHvgN-332" vertex="1">
          <mxGeometry x="630" y="530" width="220" height="220" as="geometry" />
        </mxCell>
        <mxCell id="761dnnyQ54j-Cl0NHfQN-401" value="6" style="rounded=0;whiteSpace=wrap;html=1;fontSize=32;" parent="GeeGnhDk9Cqx4BshHvgN-332" vertex="1">
          <mxGeometry x="490" y="550" width="60" height="60" as="geometry" />
        </mxCell>
        <mxCell id="761dnnyQ54j-Cl0NHfQN-402" value="8" style="rounded=0;whiteSpace=wrap;html=1;fontSize=32;" parent="GeeGnhDk9Cqx4BshHvgN-332" vertex="1">
          <mxGeometry x="550" y="530" width="80" height="80" as="geometry" />
        </mxCell>
        <mxCell id="761dnnyQ54j-Cl0NHfQN-403" value="55" style="rounded=0;whiteSpace=wrap;html=1;fontSize=32;" parent="GeeGnhDk9Cqx4BshHvgN-332" vertex="1">
          <mxGeometry width="550" height="550" as="geometry" />
        </mxCell>
        <mxCell id="761dnnyQ54j-Cl0NHfQN-404" value="53" style="rounded=0;whiteSpace=wrap;html=1;fontSize=32;" parent="GeeGnhDk9Cqx4BshHvgN-332" vertex="1">
          <mxGeometry x="550" width="530" height="530" as="geometry" />
        </mxCell>
        <mxCell id="761dnnyQ54j-Cl0NHfQN-405" value="11" style="rounded=0;whiteSpace=wrap;html=1;fontSize=32;" parent="GeeGnhDk9Cqx4BshHvgN-332" vertex="1">
          <mxGeometry x="1080" y="420" width="110" height="110" as="geometry" />
        </mxCell>
        <mxCell id="761dnnyQ54j-Cl0NHfQN-406" value="42" style="rounded=0;whiteSpace=wrap;html=1;fontSize=32;" parent="GeeGnhDk9Cqx4BshHvgN-332" vertex="1">
          <mxGeometry x="1080" width="420" height="420" as="geometry" />
        </mxCell>
        <mxCell id="GeeGnhDk9Cqx4BshHvgN-333" value="" style="group;flipV=1;" vertex="1" connectable="0" parent="1">
          <mxGeometry x="32600" y="50" width="1500" height="1300" as="geometry" />
        </mxCell>
        <mxCell id="761dnnyQ54j-Cl0NHfQN-480" value="49" style="rounded=0;whiteSpace=wrap;html=1;fontSize=32;" parent="GeeGnhDk9Cqx4BshHvgN-333" vertex="1">
          <mxGeometry y="810" width="490" height="490" as="geometry" />
        </mxCell>
        <mxCell id="761dnnyQ54j-Cl0NHfQN-481" value="29" style="rounded=0;whiteSpace=wrap;html=1;fontSize=32;" parent="GeeGnhDk9Cqx4BshHvgN-333" vertex="1">
          <mxGeometry x="490" y="1010" width="290" height="290" as="geometry" />
        </mxCell>
        <mxCell id="761dnnyQ54j-Cl0NHfQN-482" value="21" style="rounded=0;whiteSpace=wrap;html=1;fontSize=32;" parent="GeeGnhDk9Cqx4BshHvgN-333" vertex="1">
          <mxGeometry x="780" y="1090" width="210" height="210" as="geometry" />
        </mxCell>
        <mxCell id="761dnnyQ54j-Cl0NHfQN-483" value="23" style="rounded=0;whiteSpace=wrap;html=1;fontSize=32;" parent="GeeGnhDk9Cqx4BshHvgN-333" vertex="1">
          <mxGeometry x="990" y="1070" width="230" height="230" as="geometry" />
        </mxCell>
        <mxCell id="761dnnyQ54j-Cl0NHfQN-484" value="15" style="rounded=0;whiteSpace=wrap;html=1;fontSize=32;" parent="GeeGnhDk9Cqx4BshHvgN-333" vertex="1">
          <mxGeometry x="780" y="940" width="150" height="150" as="geometry" />
        </mxCell>
        <mxCell id="761dnnyQ54j-Cl0NHfQN-485" value="6" style="rounded=0;whiteSpace=wrap;html=1;fontSize=32;" parent="GeeGnhDk9Cqx4BshHvgN-333" vertex="1">
          <mxGeometry x="930" y="1030" width="60" height="60" as="geometry" />
        </mxCell>
        <mxCell id="761dnnyQ54j-Cl0NHfQN-486" value="28" style="rounded=0;whiteSpace=wrap;html=1;fontSize=32;" parent="GeeGnhDk9Cqx4BshHvgN-333" vertex="1">
          <mxGeometry x="1220" y="1020" width="280" height="280" as="geometry" />
        </mxCell>
        <mxCell id="761dnnyQ54j-Cl0NHfQN-487" value="4" style="rounded=0;whiteSpace=wrap;html=1;fontSize=32;" parent="GeeGnhDk9Cqx4BshHvgN-333" vertex="1">
          <mxGeometry x="990" y="1030" width="40" height="40" as="geometry" />
        </mxCell>
        <mxCell id="761dnnyQ54j-Cl0NHfQN-488" value="14" style="rounded=0;whiteSpace=wrap;html=1;fontSize=32;" parent="GeeGnhDk9Cqx4BshHvgN-333" vertex="1">
          <mxGeometry x="1030" y="930" width="140" height="140" as="geometry" />
        </mxCell>
        <mxCell id="761dnnyQ54j-Cl0NHfQN-489" value="5" style="rounded=0;whiteSpace=wrap;html=1;fontSize=32;" parent="GeeGnhDk9Cqx4BshHvgN-333" vertex="1">
          <mxGeometry x="1170" y="1020" width="50" height="50" as="geometry" />
        </mxCell>
        <mxCell id="761dnnyQ54j-Cl0NHfQN-490" value="10" style="rounded=0;whiteSpace=wrap;html=1;fontSize=32;" parent="GeeGnhDk9Cqx4BshHvgN-333" vertex="1">
          <mxGeometry x="930" y="930" width="100" height="100" as="geometry" />
        </mxCell>
        <mxCell id="761dnnyQ54j-Cl0NHfQN-491" value="20" style="rounded=0;whiteSpace=wrap;html=1;fontSize=32;" parent="GeeGnhDk9Cqx4BshHvgN-333" vertex="1">
          <mxGeometry x="490" y="810" width="200" height="200" as="geometry" />
        </mxCell>
        <mxCell id="761dnnyQ54j-Cl0NHfQN-492" value="9" style="rounded=0;whiteSpace=wrap;html=1;fontSize=32;" parent="GeeGnhDk9Cqx4BshHvgN-333" vertex="1">
          <mxGeometry x="690" y="920" width="90" height="90" as="geometry" />
        </mxCell>
        <mxCell id="761dnnyQ54j-Cl0NHfQN-493" value="2" style="rounded=0;whiteSpace=wrap;html=1;fontSize=32;" parent="GeeGnhDk9Cqx4BshHvgN-333" vertex="1">
          <mxGeometry x="780" y="920" width="20" height="20" as="geometry" />
        </mxCell>
        <mxCell id="761dnnyQ54j-Cl0NHfQN-494" value="13" style="rounded=0;whiteSpace=wrap;html=1;fontSize=32;" parent="GeeGnhDk9Cqx4BshHvgN-333" vertex="1">
          <mxGeometry x="800" y="810" width="130" height="130" as="geometry" />
        </mxCell>
        <mxCell id="761dnnyQ54j-Cl0NHfQN-495" value="11" style="rounded=0;whiteSpace=wrap;html=1;fontSize=32;" parent="GeeGnhDk9Cqx4BshHvgN-333" vertex="1">
          <mxGeometry x="690" y="810" width="110" height="110" as="geometry" />
        </mxCell>
        <mxCell id="761dnnyQ54j-Cl0NHfQN-496" value="33" style="rounded=0;whiteSpace=wrap;html=1;fontSize=32;" parent="GeeGnhDk9Cqx4BshHvgN-333" vertex="1">
          <mxGeometry x="1170" y="690" width="330" height="330" as="geometry" />
        </mxCell>
        <mxCell id="761dnnyQ54j-Cl0NHfQN-497" value="24" style="rounded=0;whiteSpace=wrap;html=1;fontSize=32;" parent="GeeGnhDk9Cqx4BshHvgN-333" vertex="1">
          <mxGeometry x="930" y="690" width="240" height="240" as="geometry" />
        </mxCell>
        <mxCell id="761dnnyQ54j-Cl0NHfQN-498" value="81" style="rounded=0;whiteSpace=wrap;html=1;fontSize=32;" parent="GeeGnhDk9Cqx4BshHvgN-333" vertex="1">
          <mxGeometry width="810" height="810" as="geometry" />
        </mxCell>
        <mxCell id="761dnnyQ54j-Cl0NHfQN-499" value="12" style="rounded=0;whiteSpace=wrap;html=1;fontSize=32;" parent="GeeGnhDk9Cqx4BshHvgN-333" vertex="1">
          <mxGeometry x="810" y="690" width="120" height="120" as="geometry" />
        </mxCell>
        <mxCell id="761dnnyQ54j-Cl0NHfQN-500" value="69" style="rounded=0;whiteSpace=wrap;html=1;fontSize=32;" parent="GeeGnhDk9Cqx4BshHvgN-333" vertex="1">
          <mxGeometry x="810" width="690" height="690" as="geometry" />
        </mxCell>
        <mxCell id="GeeGnhDk9Cqx4BshHvgN-334" value="" style="group;flipV=1;" vertex="1" connectable="0" parent="1">
          <mxGeometry x="32600" y="1480" width="1500" height="1350" as="geometry" />
        </mxCell>
        <mxCell id="GeeGnhDk9Cqx4BshHvgN-201" value="51" style="rounded=0;whiteSpace=wrap;html=1;fontSize=32;" vertex="1" parent="GeeGnhDk9Cqx4BshHvgN-334">
          <mxGeometry y="840" width="510" height="510" as="geometry" />
        </mxCell>
        <mxCell id="GeeGnhDk9Cqx4BshHvgN-202" value="13" style="rounded=0;whiteSpace=wrap;html=1;fontSize=32;" vertex="1" parent="GeeGnhDk9Cqx4BshHvgN-334">
          <mxGeometry x="510" y="1220" width="130" height="130" as="geometry" />
        </mxCell>
        <mxCell id="GeeGnhDk9Cqx4BshHvgN-203" value="11" style="rounded=0;whiteSpace=wrap;html=1;fontSize=32;" vertex="1" parent="GeeGnhDk9Cqx4BshHvgN-334">
          <mxGeometry x="640" y="1240" width="110" height="110" as="geometry" />
        </mxCell>
        <mxCell id="GeeGnhDk9Cqx4BshHvgN-204" value="20" style="rounded=0;whiteSpace=wrap;html=1;fontSize=32;" vertex="1" parent="GeeGnhDk9Cqx4BshHvgN-334">
          <mxGeometry x="750" y="1150" width="200" height="200" as="geometry" />
        </mxCell>
        <mxCell id="GeeGnhDk9Cqx4BshHvgN-205" value="2" style="rounded=0;whiteSpace=wrap;html=1;fontSize=32;" vertex="1" parent="GeeGnhDk9Cqx4BshHvgN-334">
          <mxGeometry x="640" y="1220" width="20" height="20" as="geometry" />
        </mxCell>
        <mxCell id="GeeGnhDk9Cqx4BshHvgN-206" value="9" style="rounded=0;whiteSpace=wrap;html=1;fontSize=32;" vertex="1" parent="GeeGnhDk9Cqx4BshHvgN-334">
          <mxGeometry x="660" y="1150" width="90" height="90" as="geometry" />
        </mxCell>
        <mxCell id="GeeGnhDk9Cqx4BshHvgN-207" value="15" style="rounded=0;whiteSpace=wrap;html=1;fontSize=32;" vertex="1" parent="GeeGnhDk9Cqx4BshHvgN-334">
          <mxGeometry x="510" y="1070" width="150" height="150" as="geometry" />
        </mxCell>
        <mxCell id="GeeGnhDk9Cqx4BshHvgN-208" value="24" style="rounded=0;whiteSpace=wrap;html=1;fontSize=32;" vertex="1" parent="GeeGnhDk9Cqx4BshHvgN-334">
          <mxGeometry x="950" y="1110" width="240" height="240" as="geometry" />
        </mxCell>
        <mxCell id="GeeGnhDk9Cqx4BshHvgN-209" value="8" style="rounded=0;whiteSpace=wrap;html=1;fontSize=32;" vertex="1" parent="GeeGnhDk9Cqx4BshHvgN-334">
          <mxGeometry x="660" y="1070" width="80" height="80" as="geometry" />
        </mxCell>
        <mxCell id="GeeGnhDk9Cqx4BshHvgN-210" value="21" style="rounded=0;whiteSpace=wrap;html=1;fontSize=32;" vertex="1" parent="GeeGnhDk9Cqx4BshHvgN-334">
          <mxGeometry x="740" y="940" width="210" height="210" as="geometry" />
        </mxCell>
        <mxCell id="GeeGnhDk9Cqx4BshHvgN-211" value="23" style="rounded=0;whiteSpace=wrap;html=1;fontSize=32;" vertex="1" parent="GeeGnhDk9Cqx4BshHvgN-334">
          <mxGeometry x="510" y="840" width="230" height="230" as="geometry" />
        </mxCell>
        <mxCell id="GeeGnhDk9Cqx4BshHvgN-212" value="31" style="rounded=0;whiteSpace=wrap;html=1;fontSize=32;" vertex="1" parent="GeeGnhDk9Cqx4BshHvgN-334">
          <mxGeometry x="1190" y="1040" width="310" height="310" as="geometry" />
        </mxCell>
        <mxCell id="GeeGnhDk9Cqx4BshHvgN-213" value="17" style="rounded=0;whiteSpace=wrap;html=1;fontSize=32;" vertex="1" parent="GeeGnhDk9Cqx4BshHvgN-334">
          <mxGeometry x="950" y="940" width="170" height="170" as="geometry" />
        </mxCell>
        <mxCell id="GeeGnhDk9Cqx4BshHvgN-214" value="7" style="rounded=0;whiteSpace=wrap;html=1;fontSize=32;" vertex="1" parent="GeeGnhDk9Cqx4BshHvgN-334">
          <mxGeometry x="1120" y="1040" width="70" height="70" as="geometry" />
        </mxCell>
        <mxCell id="GeeGnhDk9Cqx4BshHvgN-215" value="38" style="rounded=0;whiteSpace=wrap;html=1;fontSize=32;" vertex="1" parent="GeeGnhDk9Cqx4BshHvgN-334">
          <mxGeometry x="1120" y="660" width="380" height="380" as="geometry" />
        </mxCell>
        <mxCell id="GeeGnhDk9Cqx4BshHvgN-216" value="10" style="rounded=0;whiteSpace=wrap;html=1;fontSize=32;" vertex="1" parent="GeeGnhDk9Cqx4BshHvgN-334">
          <mxGeometry x="740" y="840" width="100" height="100" as="geometry" />
        </mxCell>
        <mxCell id="GeeGnhDk9Cqx4BshHvgN-217" value="28" style="rounded=0;whiteSpace=wrap;html=1;fontSize=32;" vertex="1" parent="GeeGnhDk9Cqx4BshHvgN-334">
          <mxGeometry x="840" y="660" width="280" height="280" as="geometry" />
        </mxCell>
        <mxCell id="GeeGnhDk9Cqx4BshHvgN-218" value="84" style="rounded=0;whiteSpace=wrap;html=1;fontSize=32;" vertex="1" parent="GeeGnhDk9Cqx4BshHvgN-334">
          <mxGeometry width="840" height="840" as="geometry" />
        </mxCell>
        <mxCell id="GeeGnhDk9Cqx4BshHvgN-219" value="66" style="rounded=0;whiteSpace=wrap;html=1;fontSize=32;" vertex="1" parent="GeeGnhDk9Cqx4BshHvgN-334">
          <mxGeometry x="840" width="660" height="660" as="geometry" />
        </mxCell>
        <mxCell id="GeeGnhDk9Cqx4BshHvgN-335" value="" style="group;flipV=1;" vertex="1" connectable="0" parent="1">
          <mxGeometry x="32600" y="2990" width="1500" height="1380" as="geometry" />
        </mxCell>
        <mxCell id="GeeGnhDk9Cqx4BshHvgN-221" value="17" style="rounded=0;whiteSpace=wrap;html=1;fontSize=32;fillColor=#f5f5f5;fontColor=#333333;strokeColor=#666666;" vertex="1" parent="GeeGnhDk9Cqx4BshHvgN-335">
          <mxGeometry y="1210" width="170" height="170" as="geometry" />
        </mxCell>
        <mxCell id="GeeGnhDk9Cqx4BshHvgN-222" value="19" style="rounded=0;whiteSpace=wrap;html=1;fontSize=32;fillColor=#f5f5f5;fontColor=#333333;strokeColor=#666666;" vertex="1" parent="GeeGnhDk9Cqx4BshHvgN-335">
          <mxGeometry x="170" y="1190" width="190" height="190" as="geometry" />
        </mxCell>
        <mxCell id="GeeGnhDk9Cqx4BshHvgN-223" value="15" style="rounded=0;whiteSpace=wrap;html=1;fontSize=32;fillColor=#f5f5f5;fontColor=#333333;strokeColor=#666666;" vertex="1" parent="GeeGnhDk9Cqx4BshHvgN-335">
          <mxGeometry y="1060" width="150" height="150" as="geometry" />
        </mxCell>
        <mxCell id="GeeGnhDk9Cqx4BshHvgN-224" value="2" style="rounded=0;whiteSpace=wrap;html=1;fontSize=32;fillColor=#f5f5f5;fontColor=#333333;strokeColor=#666666;" vertex="1" parent="GeeGnhDk9Cqx4BshHvgN-335">
          <mxGeometry x="150" y="1190" width="20" height="20" as="geometry" />
        </mxCell>
        <mxCell id="GeeGnhDk9Cqx4BshHvgN-225" value="27" style="rounded=0;whiteSpace=wrap;html=1;fontSize=32;fillColor=#f5f5f5;fontColor=#333333;strokeColor=#666666;" vertex="1" parent="GeeGnhDk9Cqx4BshHvgN-335">
          <mxGeometry x="360" y="1110" width="270" height="270" as="geometry" />
        </mxCell>
        <mxCell id="GeeGnhDk9Cqx4BshHvgN-226" value="13" style="rounded=0;whiteSpace=wrap;html=1;fontSize=32;fillColor=#f5f5f5;fontColor=#333333;strokeColor=#666666;" vertex="1" parent="GeeGnhDk9Cqx4BshHvgN-335">
          <mxGeometry x="150" y="1060" width="130" height="130" as="geometry" />
        </mxCell>
        <mxCell id="GeeGnhDk9Cqx4BshHvgN-227" value="8" style="rounded=0;whiteSpace=wrap;html=1;fontSize=32;fillColor=#f5f5f5;fontColor=#333333;strokeColor=#666666;" vertex="1" parent="GeeGnhDk9Cqx4BshHvgN-335">
          <mxGeometry x="280" y="1110" width="80" height="80" as="geometry" />
        </mxCell>
        <mxCell id="GeeGnhDk9Cqx4BshHvgN-228" value="21" style="rounded=0;whiteSpace=wrap;html=1;fontSize=32;fillColor=#f5f5f5;fontColor=#333333;strokeColor=#666666;" vertex="1" parent="GeeGnhDk9Cqx4BshHvgN-335">
          <mxGeometry x="630" y="1170" width="210" height="210" as="geometry" />
        </mxCell>
        <mxCell id="GeeGnhDk9Cqx4BshHvgN-229" value="66" style="rounded=0;whiteSpace=wrap;html=1;fontSize=32;" vertex="1" parent="GeeGnhDk9Cqx4BshHvgN-335">
          <mxGeometry x="840" y="720" width="660" height="660" as="geometry" />
        </mxCell>
        <mxCell id="GeeGnhDk9Cqx4BshHvgN-230" value="5" style="rounded=0;whiteSpace=wrap;html=1;fontSize=32;fillColor=#f5f5f5;fontColor=#333333;strokeColor=#666666;" vertex="1" parent="GeeGnhDk9Cqx4BshHvgN-335">
          <mxGeometry x="630" y="1120" width="50" height="50" as="geometry" />
        </mxCell>
        <mxCell id="GeeGnhDk9Cqx4BshHvgN-231" value="16" style="rounded=0;whiteSpace=wrap;html=1;fontSize=32;fillColor=#f5f5f5;fontColor=#333333;strokeColor=#666666;" vertex="1" parent="GeeGnhDk9Cqx4BshHvgN-335">
          <mxGeometry x="680" y="1010" width="160" height="160" as="geometry" />
        </mxCell>
        <mxCell id="GeeGnhDk9Cqx4BshHvgN-232" value="1" style="rounded=0;whiteSpace=wrap;html=1;fontSize=32;fillColor=#f5f5f5;fontColor=#333333;strokeColor=#666666;" vertex="1" parent="GeeGnhDk9Cqx4BshHvgN-335">
          <mxGeometry x="630" y="1110" width="10" height="10" as="geometry" />
        </mxCell>
        <mxCell id="GeeGnhDk9Cqx4BshHvgN-233" value="4" style="rounded=0;whiteSpace=wrap;html=1;fontSize=32;fillColor=#f5f5f5;fontColor=#333333;strokeColor=#666666;" vertex="1" parent="GeeGnhDk9Cqx4BshHvgN-335">
          <mxGeometry x="640" y="1080" width="40" height="40" as="geometry" />
        </mxCell>
        <mxCell id="GeeGnhDk9Cqx4BshHvgN-234" value="33" style="rounded=0;whiteSpace=wrap;html=1;fontSize=32;fillColor=#f5f5f5;fontColor=#333333;strokeColor=#666666;" vertex="1" parent="GeeGnhDk9Cqx4BshHvgN-335">
          <mxGeometry x="280" y="780" width="330" height="330" as="geometry" />
        </mxCell>
        <mxCell id="GeeGnhDk9Cqx4BshHvgN-235" value="3" style="rounded=0;whiteSpace=wrap;html=1;fontSize=32;fillColor=#f5f5f5;fontColor=#333333;strokeColor=#666666;" vertex="1" parent="GeeGnhDk9Cqx4BshHvgN-335">
          <mxGeometry x="610" y="1080" width="30" height="30" as="geometry" />
        </mxCell>
        <mxCell id="GeeGnhDk9Cqx4BshHvgN-236" value="7" style="rounded=0;whiteSpace=wrap;html=1;fontSize=32;fillColor=#f5f5f5;fontColor=#333333;strokeColor=#666666;" vertex="1" parent="GeeGnhDk9Cqx4BshHvgN-335">
          <mxGeometry x="610" y="1010" width="70" height="70" as="geometry" />
        </mxCell>
        <mxCell id="GeeGnhDk9Cqx4BshHvgN-237" value="23" style="rounded=0;whiteSpace=wrap;html=1;fontSize=32;fillColor=#f5f5f5;fontColor=#333333;strokeColor=#666666;" vertex="1" parent="GeeGnhDk9Cqx4BshHvgN-335">
          <mxGeometry x="610" y="780" width="230" height="230" as="geometry" />
        </mxCell>
        <mxCell id="GeeGnhDk9Cqx4BshHvgN-238" value="28" style="rounded=0;whiteSpace=wrap;html=1;fontSize=32;fillColor=#f5f5f5;fontColor=#333333;strokeColor=#666666;" vertex="1" parent="GeeGnhDk9Cqx4BshHvgN-335">
          <mxGeometry y="780" width="280" height="280" as="geometry" />
        </mxCell>
        <mxCell id="GeeGnhDk9Cqx4BshHvgN-239" value="78" style="rounded=0;whiteSpace=wrap;html=1;fontSize=32;" vertex="1" parent="GeeGnhDk9Cqx4BshHvgN-335">
          <mxGeometry width="780" height="780" as="geometry" />
        </mxCell>
        <mxCell id="GeeGnhDk9Cqx4BshHvgN-240" value="6" style="rounded=0;whiteSpace=wrap;html=1;fontSize=32;" vertex="1" parent="GeeGnhDk9Cqx4BshHvgN-335">
          <mxGeometry x="780" y="720" width="60" height="60" as="geometry" />
        </mxCell>
        <mxCell id="GeeGnhDk9Cqx4BshHvgN-241" value="72" style="rounded=0;whiteSpace=wrap;html=1;fontSize=32;" vertex="1" parent="GeeGnhDk9Cqx4BshHvgN-335">
          <mxGeometry x="780" width="720" height="720" as="geometry" />
        </mxCell>
        <mxCell id="GeeGnhDk9Cqx4BshHvgN-337" value="" style="group;flipV=1;" vertex="1" connectable="0" parent="1">
          <mxGeometry x="32600" y="4500" width="1500" height="1380" as="geometry" />
        </mxCell>
        <mxCell id="GeeGnhDk9Cqx4BshHvgN-243" value="45" style="rounded=0;whiteSpace=wrap;html=1;fontSize=32;" vertex="1" parent="GeeGnhDk9Cqx4BshHvgN-337">
          <mxGeometry y="930" width="450" height="450" as="geometry" />
        </mxCell>
        <mxCell id="GeeGnhDk9Cqx4BshHvgN-244" value="55" style="rounded=0;whiteSpace=wrap;html=1;fontSize=32;" vertex="1" parent="GeeGnhDk9Cqx4BshHvgN-337">
          <mxGeometry x="450" y="830" width="550" height="550" as="geometry" />
        </mxCell>
        <mxCell id="GeeGnhDk9Cqx4BshHvgN-245" value="35" style="rounded=0;whiteSpace=wrap;html=1;fontSize=32;" vertex="1" parent="GeeGnhDk9Cqx4BshHvgN-337">
          <mxGeometry y="580" width="350" height="350" as="geometry" />
        </mxCell>
        <mxCell id="GeeGnhDk9Cqx4BshHvgN-246" value="10" style="rounded=0;whiteSpace=wrap;html=1;fontSize=32;" vertex="1" parent="GeeGnhDk9Cqx4BshHvgN-337">
          <mxGeometry x="350" y="830" width="100" height="100" as="geometry" />
        </mxCell>
        <mxCell id="GeeGnhDk9Cqx4BshHvgN-247" value="50" style="rounded=0;whiteSpace=wrap;html=1;fontSize=32;" vertex="1" parent="GeeGnhDk9Cqx4BshHvgN-337">
          <mxGeometry x="1000" y="880" width="500" height="500" as="geometry" />
        </mxCell>
        <mxCell id="GeeGnhDk9Cqx4BshHvgN-248" value="5" style="rounded=0;whiteSpace=wrap;html=1;fontSize=32;" vertex="1" parent="GeeGnhDk9Cqx4BshHvgN-337">
          <mxGeometry x="1000" y="830" width="50" height="50" as="geometry" />
        </mxCell>
        <mxCell id="GeeGnhDk9Cqx4BshHvgN-249" value="15" style="rounded=0;whiteSpace=wrap;html=1;fontSize=32;" vertex="1" parent="GeeGnhDk9Cqx4BshHvgN-337">
          <mxGeometry x="1050" y="730" width="150" height="150" as="geometry" />
        </mxCell>
        <mxCell id="GeeGnhDk9Cqx4BshHvgN-250" value="30" style="rounded=0;whiteSpace=wrap;html=1;fontSize=32;" vertex="1" parent="GeeGnhDk9Cqx4BshHvgN-337">
          <mxGeometry x="1200" y="580" width="300" height="300" as="geometry" />
        </mxCell>
        <mxCell id="GeeGnhDk9Cqx4BshHvgN-251" value="25" style="rounded=0;whiteSpace=wrap;html=1;fontSize=32;" vertex="1" parent="GeeGnhDk9Cqx4BshHvgN-337">
          <mxGeometry x="350" y="580" width="250" height="250" as="geometry" />
        </mxCell>
        <mxCell id="GeeGnhDk9Cqx4BshHvgN-252" value="27" style="rounded=0;whiteSpace=wrap;html=1;fontSize=32;" vertex="1" parent="GeeGnhDk9Cqx4BshHvgN-337">
          <mxGeometry x="600" y="560" width="270" height="270" as="geometry" />
        </mxCell>
        <mxCell id="GeeGnhDk9Cqx4BshHvgN-253" value="11" style="rounded=0;whiteSpace=wrap;html=1;fontSize=32;" vertex="1" parent="GeeGnhDk9Cqx4BshHvgN-337">
          <mxGeometry x="870" y="720" width="110" height="110" as="geometry" />
        </mxCell>
        <mxCell id="GeeGnhDk9Cqx4BshHvgN-254" value="7" style="rounded=0;whiteSpace=wrap;html=1;fontSize=32;" vertex="1" parent="GeeGnhDk9Cqx4BshHvgN-337">
          <mxGeometry x="980" y="760" width="70" height="70" as="geometry" />
        </mxCell>
        <mxCell id="GeeGnhDk9Cqx4BshHvgN-255" value="4" style="rounded=0;whiteSpace=wrap;html=1;fontSize=32;" vertex="1" parent="GeeGnhDk9Cqx4BshHvgN-337">
          <mxGeometry x="980" y="720" width="40" height="40" as="geometry" />
        </mxCell>
        <mxCell id="GeeGnhDk9Cqx4BshHvgN-256" value="3" style="rounded=0;whiteSpace=wrap;html=1;fontSize=32;" vertex="1" parent="GeeGnhDk9Cqx4BshHvgN-337">
          <mxGeometry x="1020" y="730" width="30" height="30" as="geometry" />
        </mxCell>
        <mxCell id="GeeGnhDk9Cqx4BshHvgN-257" value="1" style="rounded=0;whiteSpace=wrap;html=1;fontSize=32;" vertex="1" parent="GeeGnhDk9Cqx4BshHvgN-337">
          <mxGeometry x="1020" y="720" width="10" height="10" as="geometry" />
        </mxCell>
        <mxCell id="GeeGnhDk9Cqx4BshHvgN-258" value="17" style="rounded=0;whiteSpace=wrap;html=1;fontSize=32;" vertex="1" parent="GeeGnhDk9Cqx4BshHvgN-337">
          <mxGeometry x="1030" y="560" width="170" height="170" as="geometry" />
        </mxCell>
        <mxCell id="GeeGnhDk9Cqx4BshHvgN-259" value="16" style="rounded=0;whiteSpace=wrap;html=1;fontSize=32;" vertex="1" parent="GeeGnhDk9Cqx4BshHvgN-337">
          <mxGeometry x="870" y="560" width="160" height="160" as="geometry" />
        </mxCell>
        <mxCell id="GeeGnhDk9Cqx4BshHvgN-260" value="8" style="rounded=0;whiteSpace=wrap;html=1;fontSize=32;" vertex="1" parent="GeeGnhDk9Cqx4BshHvgN-337">
          <mxGeometry x="1200" y="500" width="80" height="80" as="geometry" />
        </mxCell>
        <mxCell id="GeeGnhDk9Cqx4BshHvgN-261" value="22" style="rounded=0;whiteSpace=wrap;html=1;fontSize=32;" vertex="1" parent="GeeGnhDk9Cqx4BshHvgN-337">
          <mxGeometry x="1280" y="360" width="220" height="220" as="geometry" />
        </mxCell>
        <mxCell id="GeeGnhDk9Cqx4BshHvgN-262" value="58" style="rounded=0;whiteSpace=wrap;html=1;fontSize=32;" vertex="1" parent="GeeGnhDk9Cqx4BshHvgN-337">
          <mxGeometry width="580" height="580" as="geometry" />
        </mxCell>
        <mxCell id="GeeGnhDk9Cqx4BshHvgN-263" value="2" style="rounded=0;whiteSpace=wrap;html=1;fontSize=32;" vertex="1" parent="GeeGnhDk9Cqx4BshHvgN-337">
          <mxGeometry x="580" y="560" width="20" height="20" as="geometry" />
        </mxCell>
        <mxCell id="GeeGnhDk9Cqx4BshHvgN-264" value="56" style="rounded=0;whiteSpace=wrap;html=1;fontSize=32;" vertex="1" parent="GeeGnhDk9Cqx4BshHvgN-337">
          <mxGeometry x="580" width="560" height="560" as="geometry" />
        </mxCell>
        <mxCell id="GeeGnhDk9Cqx4BshHvgN-265" value="6" style="rounded=0;whiteSpace=wrap;html=1;fontSize=32;" vertex="1" parent="GeeGnhDk9Cqx4BshHvgN-337">
          <mxGeometry x="1140" y="500" width="60" height="60" as="geometry" />
        </mxCell>
        <mxCell id="GeeGnhDk9Cqx4BshHvgN-266" value="14" style="rounded=0;whiteSpace=wrap;html=1;fontSize=32;" vertex="1" parent="GeeGnhDk9Cqx4BshHvgN-337">
          <mxGeometry x="1140" y="360" width="140" height="140" as="geometry" />
        </mxCell>
        <mxCell id="GeeGnhDk9Cqx4BshHvgN-267" value="36" style="rounded=0;whiteSpace=wrap;html=1;fontSize=32;" vertex="1" parent="GeeGnhDk9Cqx4BshHvgN-337">
          <mxGeometry x="1140" width="360" height="360" as="geometry" />
        </mxCell>
        <mxCell id="GeeGnhDk9Cqx4BshHvgN-338" value="" style="group;flipV=1;" vertex="1" connectable="0" parent="1">
          <mxGeometry x="32630" y="6000" width="1500" height="1430" as="geometry" />
        </mxCell>
        <mxCell id="GeeGnhDk9Cqx4BshHvgN-269" value="39" style="rounded=0;whiteSpace=wrap;html=1;fontSize=32;" vertex="1" parent="GeeGnhDk9Cqx4BshHvgN-338">
          <mxGeometry y="1040" width="390" height="390" as="geometry" />
        </mxCell>
        <mxCell id="GeeGnhDk9Cqx4BshHvgN-270" value="23" style="rounded=0;whiteSpace=wrap;html=1;fontSize=32;" vertex="1" parent="GeeGnhDk9Cqx4BshHvgN-338">
          <mxGeometry x="390" y="1200" width="230" height="230" as="geometry" />
        </mxCell>
        <mxCell id="GeeGnhDk9Cqx4BshHvgN-271" value="30" style="rounded=0;whiteSpace=wrap;html=1;fontSize=32;" vertex="1" parent="GeeGnhDk9Cqx4BshHvgN-338">
          <mxGeometry x="620" y="1130" width="300" height="300" as="geometry" />
        </mxCell>
        <mxCell id="GeeGnhDk9Cqx4BshHvgN-272" value="16" style="rounded=0;whiteSpace=wrap;html=1;fontSize=32;" vertex="1" parent="GeeGnhDk9Cqx4BshHvgN-338">
          <mxGeometry x="390" y="1040" width="160" height="160" as="geometry" />
        </mxCell>
        <mxCell id="GeeGnhDk9Cqx4BshHvgN-273" value="7" style="rounded=0;whiteSpace=wrap;html=1;fontSize=32;" vertex="1" parent="GeeGnhDk9Cqx4BshHvgN-338">
          <mxGeometry x="550" y="1130" width="70" height="70" as="geometry" />
        </mxCell>
        <mxCell id="GeeGnhDk9Cqx4BshHvgN-274" value="58" style="rounded=0;whiteSpace=wrap;html=1;fontSize=32;" vertex="1" parent="GeeGnhDk9Cqx4BshHvgN-338">
          <mxGeometry x="920" y="850" width="580" height="580" as="geometry" />
        </mxCell>
        <mxCell id="GeeGnhDk9Cqx4BshHvgN-275" value="9" style="rounded=0;whiteSpace=wrap;html=1;fontSize=32;" vertex="1" parent="GeeGnhDk9Cqx4BshHvgN-338">
          <mxGeometry x="550" y="1040" width="90" height="90" as="geometry" />
        </mxCell>
        <mxCell id="GeeGnhDk9Cqx4BshHvgN-276" value="28" style="rounded=0;whiteSpace=wrap;html=1;fontSize=32;" vertex="1" parent="GeeGnhDk9Cqx4BshHvgN-338">
          <mxGeometry x="640" y="850" width="280" height="280" as="geometry" />
        </mxCell>
        <mxCell id="GeeGnhDk9Cqx4BshHvgN-277" value="45" style="rounded=0;whiteSpace=wrap;html=1;fontSize=32;" vertex="1" parent="GeeGnhDk9Cqx4BshHvgN-338">
          <mxGeometry y="590" width="450" height="450" as="geometry" />
        </mxCell>
        <mxCell id="GeeGnhDk9Cqx4BshHvgN-278" value="19" style="rounded=0;whiteSpace=wrap;html=1;fontSize=32;" vertex="1" parent="GeeGnhDk9Cqx4BshHvgN-338">
          <mxGeometry x="450" y="850" width="190" height="190" as="geometry" />
        </mxCell>
        <mxCell id="GeeGnhDk9Cqx4BshHvgN-279" value="26" style="rounded=0;whiteSpace=wrap;html=1;fontSize=32;" vertex="1" parent="GeeGnhDk9Cqx4BshHvgN-338">
          <mxGeometry x="450" y="590" width="260" height="260" as="geometry" />
        </mxCell>
        <mxCell id="GeeGnhDk9Cqx4BshHvgN-280" value="38" style="rounded=0;whiteSpace=wrap;html=1;fontSize=32;" vertex="1" parent="GeeGnhDk9Cqx4BshHvgN-338">
          <mxGeometry x="710" y="470" width="380" height="380" as="geometry" />
        </mxCell>
        <mxCell id="GeeGnhDk9Cqx4BshHvgN-281" value="41" style="rounded=0;whiteSpace=wrap;html=1;fontSize=32;" vertex="1" parent="GeeGnhDk9Cqx4BshHvgN-338">
          <mxGeometry x="1090" y="440" width="410" height="410" as="geometry" />
        </mxCell>
        <mxCell id="GeeGnhDk9Cqx4BshHvgN-282" value="59" style="rounded=0;whiteSpace=wrap;html=1;fontSize=32;" vertex="1" parent="GeeGnhDk9Cqx4BshHvgN-338">
          <mxGeometry width="590" height="590" as="geometry" />
        </mxCell>
        <mxCell id="GeeGnhDk9Cqx4BshHvgN-283" value="12" style="rounded=0;whiteSpace=wrap;html=1;fontSize=32;" vertex="1" parent="GeeGnhDk9Cqx4BshHvgN-338">
          <mxGeometry x="590" y="470" width="120" height="120" as="geometry" />
        </mxCell>
        <mxCell id="GeeGnhDk9Cqx4BshHvgN-284" value="47" style="rounded=0;whiteSpace=wrap;html=1;fontSize=32;" vertex="1" parent="GeeGnhDk9Cqx4BshHvgN-338">
          <mxGeometry x="590" width="470" height="470" as="geometry" />
        </mxCell>
        <mxCell id="GeeGnhDk9Cqx4BshHvgN-285" value="3" style="rounded=0;whiteSpace=wrap;html=1;fontSize=32;" vertex="1" parent="GeeGnhDk9Cqx4BshHvgN-338">
          <mxGeometry x="1060" y="440" width="30" height="30" as="geometry" />
        </mxCell>
        <mxCell id="GeeGnhDk9Cqx4BshHvgN-286" value="44" style="rounded=0;whiteSpace=wrap;html=1;fontSize=32;" vertex="1" parent="GeeGnhDk9Cqx4BshHvgN-338">
          <mxGeometry x="1060" width="440" height="440" as="geometry" />
        </mxCell>
        <mxCell id="GeeGnhDk9Cqx4BshHvgN-339" value="" style="group;flipV=1;" vertex="1" connectable="0" parent="1">
          <mxGeometry x="32630" y="7540" width="1500" height="1460" as="geometry" />
        </mxCell>
        <mxCell id="GeeGnhDk9Cqx4BshHvgN-288" value="64" style="rounded=0;whiteSpace=wrap;html=1;fontSize=32;" vertex="1" parent="GeeGnhDk9Cqx4BshHvgN-339">
          <mxGeometry y="820" width="640" height="640" as="geometry" />
        </mxCell>
        <mxCell id="GeeGnhDk9Cqx4BshHvgN-289" value="40" style="rounded=0;whiteSpace=wrap;html=1;fontSize=32;" vertex="1" parent="GeeGnhDk9Cqx4BshHvgN-339">
          <mxGeometry x="640" y="1060" width="400" height="400" as="geometry" />
        </mxCell>
        <mxCell id="GeeGnhDk9Cqx4BshHvgN-290" value="46" style="rounded=0;whiteSpace=wrap;html=1;fontSize=32;" vertex="1" parent="GeeGnhDk9Cqx4BshHvgN-339">
          <mxGeometry x="1040" y="1000" width="460" height="460" as="geometry" />
        </mxCell>
        <mxCell id="GeeGnhDk9Cqx4BshHvgN-291" value="24" style="rounded=0;whiteSpace=wrap;html=1;fontSize=32;" vertex="1" parent="GeeGnhDk9Cqx4BshHvgN-339">
          <mxGeometry x="640" y="820" width="240" height="240" as="geometry" />
        </mxCell>
        <mxCell id="GeeGnhDk9Cqx4BshHvgN-292" value="16" style="rounded=0;whiteSpace=wrap;html=1;fontSize=32;" vertex="1" parent="GeeGnhDk9Cqx4BshHvgN-339">
          <mxGeometry x="880" y="900" width="160" height="160" as="geometry" />
        </mxCell>
        <mxCell id="GeeGnhDk9Cqx4BshHvgN-293" value="14" style="rounded=0;whiteSpace=wrap;html=1;fontSize=32;" vertex="1" parent="GeeGnhDk9Cqx4BshHvgN-339">
          <mxGeometry x="1040" y="860" width="140" height="140" as="geometry" />
        </mxCell>
        <mxCell id="GeeGnhDk9Cqx4BshHvgN-294" value="12" style="rounded=0;whiteSpace=wrap;html=1;fontSize=32;" vertex="1" parent="GeeGnhDk9Cqx4BshHvgN-339">
          <mxGeometry x="880" y="780" width="120" height="120" as="geometry" />
        </mxCell>
        <mxCell id="GeeGnhDk9Cqx4BshHvgN-295" value="4" style="rounded=0;whiteSpace=wrap;html=1;fontSize=32;" vertex="1" parent="GeeGnhDk9Cqx4BshHvgN-339">
          <mxGeometry x="1000" y="860" width="40" height="40" as="geometry" />
        </mxCell>
        <mxCell id="GeeGnhDk9Cqx4BshHvgN-296" value="32" style="rounded=0;whiteSpace=wrap;html=1;fontSize=32;" vertex="1" parent="GeeGnhDk9Cqx4BshHvgN-339">
          <mxGeometry x="1180" y="680" width="320" height="320" as="geometry" />
        </mxCell>
        <mxCell id="GeeGnhDk9Cqx4BshHvgN-297" value="18" style="rounded=0;whiteSpace=wrap;html=1;fontSize=32;" vertex="1" parent="GeeGnhDk9Cqx4BshHvgN-339">
          <mxGeometry x="1000" y="680" width="180" height="180" as="geometry" />
        </mxCell>
        <mxCell id="GeeGnhDk9Cqx4BshHvgN-298" value="82" style="rounded=0;whiteSpace=wrap;html=1;fontSize=32;" vertex="1" parent="GeeGnhDk9Cqx4BshHvgN-339">
          <mxGeometry width="820" height="820" as="geometry" />
        </mxCell>
        <mxCell id="GeeGnhDk9Cqx4BshHvgN-299" value="6" style="rounded=0;whiteSpace=wrap;html=1;fontSize=32;" vertex="1" parent="GeeGnhDk9Cqx4BshHvgN-339">
          <mxGeometry x="820" y="760" width="60" height="60" as="geometry" />
        </mxCell>
        <mxCell id="GeeGnhDk9Cqx4BshHvgN-300" value="2" style="rounded=0;whiteSpace=wrap;html=1;fontSize=32;" vertex="1" parent="GeeGnhDk9Cqx4BshHvgN-339">
          <mxGeometry x="880" y="760" width="20" height="20" as="geometry" />
        </mxCell>
        <mxCell id="GeeGnhDk9Cqx4BshHvgN-301" value="10" style="rounded=0;whiteSpace=wrap;html=1;fontSize=32;" vertex="1" parent="GeeGnhDk9Cqx4BshHvgN-339">
          <mxGeometry x="900" y="680" width="100" height="100" as="geometry" />
        </mxCell>
        <mxCell id="GeeGnhDk9Cqx4BshHvgN-302" value="8" style="rounded=0;whiteSpace=wrap;html=1;fontSize=32;" vertex="1" parent="GeeGnhDk9Cqx4BshHvgN-339">
          <mxGeometry x="820" y="680" width="80" height="80" as="geometry" />
        </mxCell>
        <mxCell id="GeeGnhDk9Cqx4BshHvgN-303" value="68" style="rounded=0;whiteSpace=wrap;html=1;fontSize=32;" vertex="1" parent="GeeGnhDk9Cqx4BshHvgN-339">
          <mxGeometry x="820" width="680" height="680" as="geometry" />
        </mxCell>
      </root>
    </mxGraphModel>
  </diagram>
</mxfile>
